<svg xmlns="http://www.w3.org/2000/svg" id="Layer_2" viewBox="0 0 77.52 22.84"><defs><style>      .cls-1 {        fill: #fff;      }    </style></defs><g id="Layer_1-2"><g id="Layer_1-2"><g><path class="cls-1" d="M8.33.49v7.8c-.83-.81-1.95-1.26-3.31-1.26-2.95,0-5.02,2.4-5.02,5.36s2.07,5.34,5.02,5.34c1.38,0,2.56-.61,3.31-1.44h.04v1.14h3.45V.49h-3.49ZM6.07,14.75c-1.42,0-2.36-.98-2.36-2.36s1.04-2.38,2.36-2.38,2.34.99,2.34,2.38-.98,2.36-2.34,2.36Z"></path><path class="cls-1" d="M14.12,1.08c-1.14,0-2.07.93-2.07,2.07s.93,2.07,2.07,2.07,2.07-.93,2.07-2.07-.93-2.07-2.07-2.07ZM12.33,7.32v10.11h3.49V7.32h-3.49Z"></path><path class="cls-1" d="M24.03,7.32v.91h-.06c-.83-.77-1.91-1.2-3.25-1.2-2.54,0-4.42,1.77-4.9,4.15-.08.39-.12.79-.12,1.21s.04.82.12,1.21c.48,2.37,2.36,4.13,4.9,4.13,1.38,0,2.56-.2,3.31-1.02v.75c0,1.79-1.5,2.36-2.46,2.36-1.52,0-2.36-.69-2.74-1.3l-2.86,1.4c1.06,2.46,3.49,2.93,5.59,2.93,3.45,0,5.95-1.75,5.95-5.14V7.32h-3.49ZM21.76,14.75c-1.42,0-2.36-.98-2.36-2.36s1.04-2.38,2.36-2.38,2.34.99,2.34,2.38-.99,2.36-2.34,2.36Z"></path><path class="cls-1" d="M34.18,7.03c-1.1,0-2.11.57-2.9,1.36h-.04v-1.06h-3.49v10.11h3.49v-5.71c0-1,1.02-1.97,2.07-1.97,1.12,0,1.81.97,1.81,1.97v5.71h3.49v-6.66c0-2.82-2.58-3.74-4.43-3.74h0Z"></path><path class="cls-1" d="M40.59,1.08c-1.14,0-2.07.93-2.07,2.07s.93,2.07,2.07,2.07,2.07-.93,2.07-2.07-.93-2.07-2.07-2.07ZM38.79,7.12v10.31h3.49V7.12h-3.49Z"></path><g><path class="cls-1" d="M64.38,9.81c-1.46,0-2.56,1.11-2.56,2.58s1.05,2.56,2.56,2.56,2.54-1.07,2.54-2.56-1.09-2.58-2.54-2.58ZM64.38,14.56c-1.3,0-2.17-.87-2.17-2.17s.93-2.19,2.17-2.19,2.15.94,2.15,2.19-.88,2.17-2.15,2.17h0Z"></path><path class="cls-1" d="M66.45.3v7.57c-.84-.67-1.91-1.03-3.12-1.03-1.34,0-2.53.49-3.44,1.31-.89.81-1.5,1.95-1.7,3.27-.05.32-.07.64-.07.97,0,3.15,2.24,5.53,5.21,5.53,1.19,0,2.31-.43,3.16-1.2v.91h3.83V.3h-3.87ZM69.94,17.23h-3.06v-1.14h-.32l-.06.06c-.79.87-1.94,1.37-3.17,1.37-2.75,0-4.83-2.21-4.83-5.15s2.08-5.16,4.83-5.16c1.27,0,2.37.42,3.17,1.21l.33.32V.68h3.1v16.55Z"></path><path class="cls-1" d="M55.96,7.13l-2.29,4.94-2.69-4.94h-3.82v-1.86c0-1.55.26-1.8.89-1.8.51,0,.94.25.95.25l.18.1,1.38-2.78-.12-.1s-1.18-.95-3-.95c-2.54,0-4.13,1.98-4.15,5.18v1.96h-1.46v3.04h1.46v7.44h3.87v-7.44h1.07l3.19,5.68-3.58,6.89h4.45l5.91-11.33,1.7-3.27.53-1.01h-4.46ZM52.05,22.36h-3.58l3.39-6.51-3.4-6.06h-1.68v7.45h-3.1v-7.45h-1.46v-2.27h1.46v-2.34c.02-2.96,1.46-4.79,3.77-4.79,1.35,0,2.3.55,2.63.77l-1.06,2.14c-.2-.09-.56-.21-.96-.21-1.18,0-1.28.99-1.28,2.18v2.24h3.98l2.95,5.42,2.51-5.42h3.58l-7.74,14.84Z"></path></g><path class="cls-1" d="M77.52,14.38c0,1.94-1.61,3.52-3.55,3.52s-3.52-1.54-3.52-3.52,1.57-3.55,3.52-3.55,3.55,1.6,3.55,3.55Z"></path></g></g></g></svg>